<svg xmlns="http://www.w3.org/2000/svg" version="1.1" width="96" height="96" viewbox="0 0 96 96"><rect x="0" y="0" width="96" height="96" fill="#FFFFFF"></rect><g transform="translate(29.328, 60)"><path d="M7.25-23.28L7.25-23.28Q12.19-27.98 18.43-27.98L18.43-27.98Q25.2-27.98 30.05-23.28L30.05-23.28Q34.66-18.34 34.66-12L34.66-12Q34.66-10.94 34.56-10.27L34.56-10.27Q33.98-5.28 30.96-1.7 27.94 1.87 23.42 3.26L23.42 3.26Q21.12 3.98 18.72 3.98L18.72 3.98Q14.83 3.98 11.38 2.26L11.38 2.26Q7.92 0.48 5.59-2.76 3.26-6 2.74-10.27L2.74-10.27Q2.69-10.61 2.69-12 2.69-13.39 2.74-13.73L2.74-13.73Q3.46-19.3 7.25-23.28ZM20.5-25.92L20.5-25.92Q19.73-26.02 18.29-26.02L18.29-26.02Q16.94-26.02 15.84-25.78L15.84-25.78Q10.85-24.77 7.63-20.78L7.63-20.78Q4.56-16.99 4.56-12L4.56-12Q4.56-8.98 5.76-6.29L5.76-6.29Q7.1-3.22 9.79-1.06 12.48 1.1 15.84 1.78L15.84 1.78Q17.18 2.02 18.67 2.02 20.16 2.02 21.46 1.78L21.46 1.78Q26.45 0.77 29.66-3.22L29.66-3.22Q32.74-7.01 32.74-12L32.74-12Q32.74-13.73 32.3-15.46L32.3-15.46Q31.39-19.01 28.8-21.74L28.8-21.74Q25.54-25.25 20.5-25.92ZM14.93-12L14.93-12Q14.93-13.44 15.84-14.5 16.75-15.55 18-15.74L18-15.74Q18.05-15.74 18.34-15.77 18.62-15.79 18.82-15.79L18.82-15.79Q20.4-15.6 21.38-14.59 22.37-13.58 22.37-12L22.37-12Q22.37-10.37 21.34-9.31 20.3-8.26 18.67-8.26L18.67-8.26Q16.27-8.26 15.26-10.42L15.26-10.42Q14.93-11.09 14.93-12Z" fill="#404040"></path></g></svg>